<svg
        xmlns="http://www.w3.org/2000/svg"
        xmlns:xlink="http://www.w3.org/1999/xlink"
        viewBox="0 0 236 257">
    <path fill-rule="evenodd" fill="#51565e"
          d="M129.449,129.435 C125.633,131.852 121.808,134.277 118.012,136.742 C122.104,134.078 125.683,131.820 129.449,129.435 ZM233.801,181.811 C233.571,181.980 233.207,181.953 232.973,182.111 C232.945,182.129 232.917,182.148 232.890,182.167 C228.114,185.381 223.487,188.842 218.750,192.161 C218.490,192.343 218.327,192.670 218.067,192.853 C214.563,195.310 211.063,197.790 207.563,200.271 C197.300,207.544 186.931,214.941 176.603,222.162 C176.131,222.492 175.079,223.220 175.084,223.228 L169.948,215.591 C176.835,210.909 185.291,204.678 193.096,199.556 C193.354,199.387 193.421,198.707 193.676,198.535 C172.462,179.390 150.949,160.446 133.901,135.154 C133.900,135.155 133.899,135.155 133.898,135.156 C129.836,137.891 126.534,141.084 121.891,144.128 L117.254,137.234 C117.256,137.236 117.741,136.955 117.922,136.837 C121.718,134.371 125.664,131.899 129.481,129.482 C129.682,129.355 129.913,129.272 130.114,129.145 C130.120,129.141 130.133,129.149 130.142,129.149 C115.596,102.534 103.946,75.014 91.025,47.028 C90.992,47.050 90.959,47.072 90.926,47.094 C83.128,52.343 74.034,58.042 67.117,62.679 L63.532,57.347 C70.332,52.537 77.451,47.559 84.393,42.746 C85.056,42.286 85.821,41.756 86.485,41.296 C86.490,41.293 86.495,41.290 86.500,41.286 C93.592,36.376 100.570,31.600 107.859,26.695 C103.888,27.215 99.926,27.515 95.904,27.995 C80.532,29.832 64.831,33.082 49.387,34.157 C49.396,34.141 49.405,34.125 49.414,34.109 C49.402,34.110 49.390,34.111 49.379,34.112 C49.365,34.139 49.296,34.201 49.282,34.228 C49.113,34.540 48.567,35.094 48.659,35.231 L45.237,30.143 C45.156,30.021 45.765,29.542 46.070,29.338 C46.079,29.332 46.188,29.252 46.196,29.246 C46.602,28.927 47.042,28.745 47.508,28.731 C49.309,28.225 51.130,27.772 52.978,27.372 C52.989,27.369 52.993,27.370 53.004,27.368 C53.003,27.367 53.002,27.365 53.001,27.363 C52.996,27.365 52.991,27.366 52.985,27.367 C49.988,21.845 45.504,14.075 45.158,7.447 C44.218,7.995 43.280,8.359 42.335,8.662 C42.194,8.710 42.054,8.771 41.912,8.817 C39.507,9.595 36.957,10.118 34.632,11.389 C34.190,11.631 33.210,12.258 33.219,12.271 L30.196,7.775 C30.170,7.737 31.316,6.932 31.863,6.553 C35.780,3.845 41.066,1.523 45.186,3.369 C46.179,3.814 46.600,4.965 46.374,5.958 C51.732,10.144 55.374,18.984 57.961,24.988 C58.174,25.484 58.163,25.948 58.069,26.386 C69.902,24.381 82.358,23.990 94.035,23.109 C101.338,22.558 108.687,21.592 115.957,22.169 C116.175,21.782 116.476,21.434 116.826,21.155 C117.876,20.315 119.372,20.082 120.404,21.186 C122.908,19.201 125.582,17.348 128.284,15.580 C130.987,13.812 133.718,12.129 136.338,10.484 C136.624,10.303 136.930,10.100 137.252,9.878 C139.187,8.546 141.724,6.533 144.425,4.701 C148.475,1.954 152.896,-0.388 156.213,0.579 C157.378,0.920 158.417,2.036 158.077,3.352 C158.071,3.375 158.059,3.396 158.053,3.420 C167.917,15.878 176.784,29.200 185.771,42.369 C188.767,46.758 191.776,51.131 194.840,55.449 C196.059,57.168 194.844,58.957 193.280,59.461 C193.780,59.983 194.095,60.688 194.162,61.397 C194.843,68.633 194.431,76.031 193.896,83.269 C193.400,89.987 193.746,98.707 190.402,104.677 C189.535,106.226 186.879,106.689 185.882,105.167 C185.489,105.464 184.989,105.642 184.379,105.566 C179.908,105.013 174.667,104.842 170.550,102.897 C169.757,102.522 169.711,101.079 170.679,100.879 C175.276,99.933 180.560,100.996 185.170,101.518 C184.456,93.583 186.907,84.375 187.368,76.645 C187.655,71.841 185.680,61.426 190.523,58.605 C190.477,58.545 190.416,58.522 190.373,58.456 C178.991,41.271 166.546,24.561 155.976,6.848 C152.067,10.976 144.119,13.791 140.122,16.112 C134.844,19.176 129.016,22.775 123.073,25.273 C124.755,28.649 125.893,32.588 127.211,35.731 C128.406,38.582 129.575,41.446 130.762,44.301 C132.532,41.582 134.796,39.380 137.302,37.302 C140.113,34.970 143.418,31.970 147.044,31.193 C148.304,30.922 149.342,31.954 149.081,33.069 C153.338,36.334 156.578,40.623 159.882,44.872 C163.485,49.507 168.133,54.022 170.049,59.630 C170.118,59.830 170.137,60.013 170.130,60.186 C170.328,60.359 170.462,60.601 170.469,60.909 C170.634,68.499 171.366,75.953 171.022,83.606 C170.751,89.640 171.020,95.929 168.667,101.581 C168.566,101.825 168.211,101.773 168.129,101.547 C165.839,95.250 166.510,87.996 166.599,81.363 C166.690,74.581 167.700,68.045 168.188,61.348 C168.047,61.304 167.908,61.243 167.779,61.157 C162.836,57.883 159.591,52.141 156.001,47.485 C152.890,43.450 149.764,39.475 147.701,34.857 C145.722,36.802 143.128,38.178 140.884,39.799 C137.899,41.954 135.047,44.262 131.750,45.932 C131.662,45.977 131.556,45.963 131.456,45.978 C134.516,53.344 137.577,60.708 140.617,68.083 C145.061,78.867 149.537,89.642 153.605,100.575 C154.872,103.980 157.911,109.321 157.955,113.458 C175.541,122.761 190.749,140.111 206.036,152.810 C215.397,160.586 224.828,168.214 234.212,175.963 C236.466,177.824 235.619,180.479 233.801,181.811 ZM86.504,41.283 C93.623,36.358 100.758,31.473 107.938,26.642 C100.761,31.472 93.620,36.360 86.504,41.283 ZM155.406,114.648 C152.632,111.919 150.885,106.048 149.444,103.011 C144.486,92.562 139.929,81.921 135.362,71.296 C130.567,60.140 125.767,48.986 121.039,37.801 C119.828,34.935 117.927,31.658 116.712,28.383 C116.528,28.598 116.379,28.826 116.117,29.012 C108.934,34.107 101.699,39.132 94.442,44.126 C107.054,71.989 120.581,99.630 131.220,128.308 C138.168,123.903 145.047,119.487 151.556,114.798 C152.941,113.800 154.357,113.984 155.410,114.744 C155.410,114.712 155.404,114.680 155.406,114.648 ZM201.182,158.524 C186.914,146.353 167.747,133.579 157.068,117.749 C157.132,118.837 156.713,119.955 155.571,120.769 C149.240,125.285 142.794,129.884 136.255,134.425 C146.634,143.986 155.656,155.126 165.821,164.941 C176.668,175.414 187.652,185.743 198.797,195.899 C198.923,196.015 198.971,196.148 199.069,196.271 C207.939,190.460 216.776,184.667 225.473,178.810 C217.271,172.176 209.207,165.370 201.182,158.524 ZM207.563,200.271 C197.565,207.363 187.448,214.595 176.709,222.091 C187.037,214.870 197.300,207.544 207.563,200.271 ZM33.144,12.321 C33.133,12.333 33.180,12.313 33.146,12.338 C29.580,14.999 27.740,18.371 25.738,22.022 C26.296,22.017 26.882,22.152 27.430,22.607 C28.076,23.143 28.711,23.705 29.354,24.248 C31.502,26.059 33.668,27.870 35.761,29.744 C36.155,30.097 36.637,30.384 37.029,30.740 C38.652,32.210 40.665,33.477 41.876,35.277 C41.876,35.277 41.877,35.278 41.878,35.279 C43.704,33.098 44.023,31.970 45.227,30.311 L48.574,35.288 C48.598,35.325 48.617,35.430 48.571,35.514 C41.493,48.647 33.172,61.320 25.044,73.780 C20.769,80.333 16.510,87.159 11.786,93.681 C26.795,83.578 41.612,73.033 56.321,62.586 C58.749,60.862 61.182,59.011 63.446,57.405 L67.032,62.736 C64.727,64.282 62.508,66.223 60.039,67.886 C60.029,67.892 60.020,67.898 60.011,67.904 C53.420,72.341 46.656,76.610 40.102,81.212 C64.824,99.202 87.457,121.028 110.169,141.505 C112.411,139.973 114.493,138.191 116.751,136.670 L121.805,144.186 C119.479,145.701 117.128,147.178 114.765,148.639 C114.766,148.640 114.767,148.641 114.768,148.643 C128.502,174.040 138.237,203.438 149.388,229.969 C149.389,229.970 149.390,229.972 149.391,229.973 C156.138,225.084 162.974,220.326 169.863,215.648 L174.999,223.285 C174.1000,223.287 174.964,223.310 174.894,223.359 C170.938,226.118 167.078,228.785 163.096,231.494 C151.131,239.640 139.121,247.451 126.740,254.744 C126.196,255.064 125.733,255.120 125.242,255.123 C125.031,255.338 124.795,255.529 124.535,255.690 C122.666,256.890 119.671,256.625 118.527,253.937 C111.838,238.219 105.549,222.326 99.112,206.503 C94.960,196.296 90.713,186.105 86.914,175.758 C85.884,172.951 83.926,169.054 83.477,165.595 C82.973,165.619 82.597,164.941 82.970,164.540 C83.104,164.395 83.249,164.259 83.384,164.115 C83.391,163.648 83.420,163.187 83.510,162.750 C83.543,162.592 83.635,162.495 83.699,162.368 C81.904,161.092 80.218,159.166 78.984,158.110 C73.726,153.615 68.665,148.893 63.651,144.124 C61.980,142.534 60.314,140.939 58.648,139.346 C51.780,132.777 44.909,126.213 38.093,119.591 C35.727,117.293 31.835,114.610 30.124,111.488 C26.439,111.485 22.741,110.389 19.182,109.560 C14.878,108.558 10.574,107.556 6.270,106.554 C5.122,106.287 4.379,105.610 3.971,104.782 C3.678,104.948 3.391,105.127 3.097,105.292 C2.040,105.882 1.077,105.546 0.527,104.869 C0.405,104.829 0.320,104.707 0.323,104.570 C-0.103,103.796 -0.058,102.746 0.866,101.974 C1.221,101.677 1.591,101.397 1.948,101.103 C8.055,88.703 16.678,77.367 23.692,65.486 C28.875,56.706 33.813,47.553 39.352,38.889 C37.224,37.892 35.394,36.211 33.540,34.735 C30.274,32.136 27.053,29.444 23.904,26.704 C23.266,26.149 22.999,25.490 22.984,24.844 C22.465,24.717 21.962,24.336 21.877,23.665 C21.160,18.050 24.903,12.338 28.965,8.784 C29.347,8.449 30.133,7.867 30.110,7.833 L33.134,12.329 C33.134,12.329 33.140,12.324 33.144,12.321 ZM124.847,249.011 C131.857,243.184 139.106,237.574 146.514,232.117 C134.679,205.661 120.199,178.196 112.092,150.339 C104.169,155.191 96.083,159.648 87.853,163.578 C90.139,166.388 91.515,170.817 92.875,173.756 C97.512,183.780 101.731,194.005 106.027,204.178 C112.333,219.107 118.744,233.998 124.847,249.011 ZM20.463,103.027 C24.270,104.012 28.512,104.745 31.937,106.754 C32.514,106.644 33.126,106.667 33.701,106.865 C37.475,108.164 41.049,113.391 43.792,116.077 C50.427,122.573 56.997,129.134 63.581,135.682 C70.030,142.095 76.484,148.524 82.544,155.309 C83.665,156.564 85.911,158.425 87.099,160.343 C93.018,154.601 99.547,149.442 106.375,144.598 C83.435,124.647 58.934,104.730 38.289,82.477 C29.353,88.743 20.363,94.952 11.093,100.602 C14.216,101.411 17.340,102.219 20.463,103.027 ZM33.144,12.321 C33.146,12.319 33.139,12.322 33.144,12.318 C33.166,12.301 33.155,12.312 33.144,12.321 ZM45.280,30.235 C45.260,30.261 45.246,30.285 45.227,30.311 L45.152,30.200 C45.171,30.228 45.312,30.166 45.280,30.235 ZM233.897,181.954 C233.643,182.151 233.370,182.320 233.083,182.454 C233.111,182.435 233.138,182.416 233.165,182.397 C233.425,182.277 233.667,182.123 233.897,181.954 Z"/>
</svg>