<svg
        xmlns="http://www.w3.org/2000/svg"
        xmlns:xlink="http://www.w3.org/1999/xlink"
        viewBox="0 0 100 114">
    <path fill-rule="evenodd"  fill="#51565e"
          d="M97.459,88.211 C94.329,95.963 87.788,102.312 80.074,104.295 C80.098,104.804 79.908,105.328 79.399,105.782 C56.981,125.775 26.219,105.593 13.553,84.534 C3.809,68.333 -12.039,22.951 15.063,14.902 C15.021,14.524 15.052,14.132 15.270,13.734 C21.491,2.399 39.416,-1.616 50.952,2.659 C66.350,8.365 80.236,24.809 88.367,38.513 C96.743,52.630 104.003,72.011 97.459,88.211 ZM18.801,16.188 C18.008,17.139 16.835,17.059 16.005,16.475 C-4.732,30.992 7.733,65.901 18.693,83.305 C24.581,92.656 33.411,100.706 43.392,105.525 C52.953,110.140 61.853,109.118 70.661,105.283 C59.214,106.599 51.209,85.974 48.999,77.847 C42.967,55.665 43.703,26.141 19.025,15.939 C18.951,16.026 18.875,16.099 18.801,16.188 ZM93.936,73.349 C93.405,60.530 87.496,47.837 80.471,37.346 C68.397,19.316 40.493,-7.066 20.176,14.665 C33.970,17.222 42.508,29.370 46.851,42.377 C53.427,62.077 50.990,92.297 74.134,100.040 C86.854,98.719 94.463,86.053 93.936,73.349 ZM67.521,78.035 C67.162,77.714 66.842,77.343 66.588,76.933 C65.561,75.278 66.394,73.159 68.207,72.549 C68.656,72.397 69.131,72.330 69.605,72.312 C71.923,72.226 73.562,74.569 72.787,76.713 C72.004,78.880 69.251,79.579 67.521,78.035 ZM66.860,46.486 C65.222,45.654 65.649,43.442 67.188,42.828 C68.428,42.333 69.548,42.841 70.312,43.863 C70.757,44.459 70.601,45.395 70.136,45.919 C69.249,46.918 68.024,47.078 66.860,46.486 ZM59.718,59.674 C59.765,56.858 64.141,56.786 64.244,59.642 C64.352,62.628 59.666,62.690 59.718,59.674 ZM47.939,25.955 C47.393,25.206 47.443,24.081 48.390,23.086 C48.605,22.844 48.858,22.610 49.185,22.403 C49.352,22.296 49.512,22.270 49.668,22.282 C49.767,22.290 49.863,22.317 49.957,22.364 C50.006,22.390 50.057,22.413 50.105,22.448 C50.205,22.522 50.302,22.616 50.396,22.726 C51.378,23.878 51.981,26.815 51.981,26.815 C50.182,27.957 48.555,27.214 47.939,25.955 ZM32.053,48.381 C31.638,49.017 31.200,49.379 30.414,49.373 C29.165,49.362 28.528,47.956 29.308,46.994 C29.809,46.377 30.366,46.289 31.115,46.373 C31.959,46.468 32.513,47.674 32.053,48.381 ZM30.367,66.960 C27.012,69.090 25.015,65.939 28.370,63.808 C30.048,62.743 32.045,65.895 30.367,66.960 ZM34.778,81.346 C35.886,80.643 36.578,80.920 37.015,81.594 C38.104,83.061 38.081,86.561 38.081,86.561 C36.339,87.667 34.620,86.788 33.831,85.394 C33.000,84.232 33.036,82.453 34.778,81.346 ZM16.379,39.420 C16.276,39.033 16.167,38.643 16.257,38.241 C16.268,38.193 16.627,37.354 16.585,37.569 C16.885,36.041 18.848,36.388 19.163,37.673 C19.474,38.160 19.565,38.644 19.349,39.308 C18.910,40.658 16.803,41.032 16.379,39.420 Z"/>
</svg>