<svg
        xmlns="http://www.w3.org/2000/svg"
        xmlns:xlink="http://www.w3.org/1999/xlink"
        viewBox="0 0 158 207">
    <path fill-rule="evenodd" fill="#51565e"
          d="M154.493,177.629 C148.279,194.693 122.904,208.908 110.408,190.507 C108.595,192.254 106.722,193.937 104.722,195.478 C92.108,205.190 74.191,210.116 59.160,204.882 C55.853,204.893 52.428,204.022 49.250,203.324 C43.134,201.981 36.967,199.934 31.857,196.264 C31.802,196.224 31.775,196.174 31.727,196.132 C17.925,190.817 7.418,177.391 3.084,163.219 C-5.085,136.500 4.088,105.500 17.266,81.925 C18.211,80.235 20.051,80.296 21.335,81.194 C25.659,74.953 38.259,78.205 43.964,79.241 C69.438,83.868 93.608,92.373 116.947,103.456 C120.084,104.946 135.806,111.679 138.288,118.151 C139.522,118.465 140.539,119.430 140.367,120.996 C139.897,125.277 139.211,129.656 138.340,134.057 C144.876,132.340 151.692,137.306 154.808,143.284 C159.962,153.171 158.162,167.551 154.493,177.629 ZM21.992,92.336 C21.472,91.925 20.967,91.503 20.461,91.082 C13.824,110.842 5.375,129.667 8.297,151.338 C11.419,174.488 26.646,189.712 48.278,196.935 C70.205,203.536 91.294,199.848 107.370,182.783 C121.815,167.449 126.086,148.014 131.788,128.797 C110.490,127.449 89.308,123.680 69.284,116.173 C59.818,112.624 49.341,108.510 39.532,103.420 C33.553,101.619 25.699,97.691 21.992,92.336 ZM111.153,119.884 C87.350,108.396 65.337,100.090 38.711,96.216 C49.114,101.640 59.512,107.024 71.043,110.674 C84.229,114.848 97.584,117.942 111.153,119.884 ZM63.883,89.152 C57.108,87.376 50.295,85.898 43.371,84.796 C41.226,84.455 30.546,81.451 28.478,83.597 C25.642,86.539 27.552,89.519 30.940,92.197 C32.451,92.968 33.955,93.748 35.457,94.530 C35.540,94.080 35.876,93.698 36.495,93.740 C64.267,95.643 94.977,104.022 118.143,119.790 C118.590,120.094 118.805,120.476 118.856,120.860 C123.749,121.397 128.669,121.789 133.623,122.016 C133.154,109.587 72.882,91.510 63.883,89.152 ZM123.105,174.581 C128.223,179.237 134.518,178.847 138.341,171.990 C140.228,168.606 140.648,164.544 140.694,160.722 C140.714,159.129 140.771,157.406 140.496,155.835 C140.246,154.958 139.995,154.081 139.745,153.203 C137.781,152.533 135.817,151.863 133.853,151.193 C131.132,159.383 127.577,167.324 123.105,174.581 ZM137.385,138.513 C136.555,142.123 135.577,145.727 134.449,149.301 C136.525,148.144 139.063,148.880 140.823,150.958 C144.723,155.564 143.501,165.390 141.838,170.536 C140.102,175.913 136.112,180.512 130.343,181.546 C126.587,182.219 122.650,181.517 120.225,178.963 C118.498,181.433 116.647,183.795 114.673,186.043 C143.051,214.296 170.351,143.700 137.385,138.513 ZM95.356,80.712 C95.458,81.564 94.526,82.089 93.880,81.471 C85.512,73.471 93.070,62.624 99.683,56.184 C108.132,47.958 115.301,41.561 117.013,29.154 C118.330,19.607 114.758,11.845 112.058,2.952 C111.294,0.434 114.750,-0.974 116.383,0.730 C125.096,9.820 125.627,25.617 121.988,37.094 C116.632,53.987 93.157,62.248 95.356,80.712 ZM86.964,46.111 C80.741,53.187 77.570,60.807 78.204,70.321 C78.259,71.155 76.883,71.463 76.582,70.679 C73.964,63.869 73.421,57.997 76.493,51.099 C81.689,39.433 95.053,34.662 89.130,20.057 C88.275,17.948 90.282,16.293 92.255,17.247 C98.799,20.411 98.485,28.661 95.944,34.576 C93.970,39.170 90.194,42.438 86.964,46.111 Z"/>
</svg>