<svg
        xmlns="http://www.w3.org/2000/svg"
        xmlns:xlink="http://www.w3.org/1999/xlink"
        viewBox="0 0 101 115"
>
    <path fill-rule="evenodd" fill="#51565e"
          d="M85.871,82.302 C77.400,96.363 63.764,111.931 46.396,113.834 C38.086,114.745 29.397,111.989 23.999,106.133 C23.562,106.395 23.011,106.475 22.371,106.242 C-5.852,95.957 -2.634,59.306 9.921,38.182 C19.580,21.930 52.056,-13.510 71.975,6.554 C72.287,6.338 72.648,6.180 73.101,6.184 C86.031,6.299 98.052,20.188 99.746,32.373 C102.007,48.638 94.094,68.653 85.871,82.302 ZM72.936,10.535 C72.824,10.511 72.724,10.478 72.611,10.455 C71.397,10.207 70.913,9.135 71.035,8.128 C48.431,-3.268 23.580,24.235 13.436,42.127 C7.986,51.740 5.074,63.329 5.554,74.402 C6.014,85.008 11.126,92.364 18.674,98.308 C12.096,88.848 26.476,72.034 32.589,66.241 C49.274,50.428 75.630,37.102 72.936,10.535 ZM74.603,10.945 C78.880,24.307 72.219,37.578 62.817,47.560 C48.577,62.677 20.803,74.834 24.936,98.886 C32.120,109.466 46.879,110.173 57.821,103.696 C68.861,97.161 77.246,85.948 83.162,74.794 C93.329,55.624 103.363,18.557 74.603,10.945 ZM81.805,41.381 C81.256,42.791 78.954,44.713 78.954,44.713 C77.097,43.669 76.981,41.884 77.798,40.746 C78.200,39.910 79.214,39.421 80.539,39.785 C80.855,39.860 81.180,39.972 81.517,40.161 C81.690,40.259 81.789,40.387 81.852,40.530 C81.892,40.621 81.914,40.718 81.916,40.823 C81.918,40.879 81.921,40.934 81.913,40.994 C81.896,41.117 81.858,41.247 81.805,41.381 ZM70.719,69.748 C69.419,69.440 68.698,68.436 68.668,67.130 C68.627,65.294 70.777,64.623 72.046,65.688 C73.069,66.546 73.152,67.773 72.613,68.930 C72.299,69.604 71.400,69.910 70.719,69.748 ZM55.841,71.053 C53.262,72.562 50.990,68.463 53.671,67.081 C56.174,65.790 58.308,69.610 55.841,71.053 ZM44.847,86.659 C42.568,86.994 40.648,84.900 41.190,82.645 C41.303,82.177 41.478,81.720 41.719,81.302 C42.691,79.614 44.952,79.345 46.347,80.653 C46.694,80.977 46.978,81.364 47.218,81.773 C48.391,83.774 47.103,86.327 44.847,86.659 ZM52.504,21.881 C51.107,22.133 49.780,20.454 50.999,19.317 C51.292,19.044 51.584,18.764 51.980,18.652 C52.027,18.639 52.937,18.559 52.728,18.623 C54.215,18.164 54.839,20.058 53.856,20.943 C53.574,21.448 53.191,21.757 52.504,21.881 ZM51.849,35.590 C52.165,36.378 51.365,37.437 50.524,37.366 C49.768,37.302 49.242,37.087 48.875,36.391 C48.293,35.286 49.231,34.060 50.447,34.292 C51.228,34.441 51.569,34.890 51.849,35.590 ZM33.360,44.675 C29.896,42.728 31.727,39.477 35.192,41.424 C36.924,42.397 35.093,45.648 33.360,44.675 ZM19.746,60.748 C17.947,59.737 17.907,57.806 18.761,56.451 C19.392,55.169 20.976,54.358 22.775,55.369 C23.920,56.012 24.003,56.753 23.616,57.458 C22.840,59.111 19.746,60.748 19.746,60.748 Z"/>
</svg>